<?xml version="1.0" standalone="no"?>
<!DOCTYPE svg PUBLIC "-//W3C//DTD SVG 20010904//EN"
 "http://www.w3.org/TR/2001/REC-SVG-20010904/DTD/svg10.dtd">
<svg version="1.0" xmlns="http://www.w3.org/2000/svg"
 width="500.000000pt" height="500.000000pt" viewBox="0 0 500.000000 500.000000"
 preserveAspectRatio="xMidYMid meet">
<metadata>
Created by potrace 1.11, written by Peter Selinger 2001-2013
</metadata>
<g transform="translate(0.000000,500.000000) scale(0.100000,-0.100000)"
fill="#000000" stroke="none">
<path d="M2116 3590 c-14 -22 -26 -44 -26 -48 0 -5 -53 6 -117 25 l-116 33
-29 -27 c-23 -22 -28 -34 -24 -55 5 -23 2 -28 -14 -28 -11 0 -20 4 -20 9 0 10
-86 54 -107 54 -7 0 -13 3 -13 7 0 3 -17 7 -37 8 -21 1 -47 3 -58 5 -14 1 -20
-3 -18 -16 1 -14 -4 -18 -19 -14 -17 5 -19 2 -14 -19 5 -17 2 -26 -9 -30 -14
-6 -14 -9 0 -30 9 -14 13 -28 11 -33 -3 -5 1 -14 10 -21 8 -7 13 -18 11 -25
-3 -6 8 -17 24 -24 39 -17 37 -29 -3 -24 -49 6 -102 3 -93 -5 2 -2 -2 -11 -10
-19 -21 -21 -19 -34 13 -68 39 -45 56 -75 40 -75 -7 0 -2 -9 11 -19 22 -17 23
-20 9 -34 -16 -16 -58 -13 -58 5 0 28 -18 -9 -29 -59 -8 -32 -20 -70 -27 -86
-11 -19 -12 -33 -5 -46 8 -14 7 -22 -5 -32 -10 -8 -12 -15 -4 -23 16 -16 12
-26 -12 -26 l-22 0 23 -21 c30 -28 17 -36 -69 -40 -47 -3 -64 0 -63 9 4 16 -7
15 -28 -4 -15 -13 -15 -19 -4 -42 25 -50 23 -111 -2 -108 -21 3 -44 -24 -35
-39 11 -17 12 -45 3 -45 -5 0 -1 -18 10 -40 10 -21 19 -44 19 -50 0 -5 5 -10
11 -10 5 0 7 -5 4 -10 -4 -6 -3 -16 2 -23 5 -7 9 -18 9 -26 -1 -8 30 -44 69
-80 82 -77 86 -82 78 -95 -3 -5 -1 -6 5 -2 7 4 12 4 12 -1 0 -4 11 -9 25 -9
21 -2 24 1 14 12 -19 23 -4 27 33 8 36 -18 238 -168 278 -206 14 -13 49 -37
78 -53 28 -15 52 -31 52 -36 0 -4 11 -10 24 -13 25 -6 192 -115 239 -156 49
-43 151 -109 159 -104 4 3 8 0 8 -5 0 -6 5 -11 12 -11 6 0 40 -14 76 -31 35
-18 72 -32 81 -33 9 -1 28 -9 43 -19 15 -10 49 -20 75 -21 27 -2 61 -11 75
-20 16 -10 29 -13 32 -7 7 10 25 9 44 -3 7 -4 12 -4 11 1 -4 20 3 22 26 7 32
-21 80 -20 167 2 l70 18 61 -23 c125 -46 148 -50 192 -32 63 26 75 35 81 66 3
16 10 33 16 36 8 5 7 16 0 39 -9 23 -9 38 -1 52 8 16 8 19 -2 16 -7 -2 -28 13
-46 33 -30 33 -33 41 -23 60 9 15 15 18 23 10 6 -6 17 -11 25 -11 7 0 33 -16
56 -35 42 -34 131 -65 188 -65 15 0 36 8 46 18 42 45 70 81 66 85 -3 3 2 19
10 36 27 51 21 64 -47 104 -35 20 -69 37 -75 37 -7 0 -12 3 -12 8 0 4 -13 13
-29 20 -16 7 -49 28 -74 47 -25 19 -47 32 -49 29 -3 -2 -10 7 -16 20 -10 23
-9 24 26 23 61 -1 108 13 143 44 19 15 28 28 21 29 -7 0 -10 5 -6 11 3 6 1 15
-6 19 -9 6 -9 13 -1 29 10 17 9 20 -4 15 -11 -5 -15 1 -15 19 0 33 -34 91 -65
111 -14 9 -32 28 -41 41 -16 24 -15 27 2 46 11 12 20 37 20 58 1 20 12 53 24
74 15 25 21 48 18 72 -2 19 -1 35 3 35 4 0 2 11 -5 24 -13 27 -277 246 -295
246 -6 0 -11 3 -11 8 0 4 -34 34 -75 67 -124 99 -104 98 112 -7 l144 -70 30
28 29 28 -32 34 c-40 42 -137 106 -238 158 -41 21 -83 44 -92 53 -10 8 -18 10
-18 6 0 -4 -8 -1 -17 7 -10 9 -88 50 -173 91 -338 164 -512 225 -662 232 l-86
4 -26 -39z"/>
<path d="M1290 2257 c0 -3 12 -12 26 -22 15 -9 23 -12 20 -6 -7 11 -46 35 -46
28z"/>
<path d="M1350 2216 c0 -2 7 -7 16 -10 8 -3 12 -2 9 4 -6 10 -25 14 -25 6z"/>
<path d="M1484 2134 c11 -8 27 -14 35 -14 12 1 11 4 -4 12 -30 18 -54 20 -31
2z"/>
</g>
</svg>
